<?xml version="1.0" encoding="UTF-8"?>
<svg version="1.1" xmlns="http://www.w3.org/2000/svg" width="256" height="256">
<path d="M0 0 C1.43140406 -0.00457183 2.86280594 -0.00988035 4.29420471 -0.0158844 C7.29249993 -0.02479749 10.29052866 -0.02241873 13.28881836 -0.01245117 C17.08423269 -0.00104868 20.87870441 -0.02104587 24.67399502 -0.05036831 C27.63336306 -0.06895964 30.59251561 -0.06839163 33.55192757 -0.06273079 C34.94821544 -0.06257989 36.3445202 -0.06842694 37.74075127 -0.08102226 C50.51486666 -0.17991677 64.41768481 1.43777053 75.44140625 8.43359375 C77.81640625 11.12109375 77.81640625 11.12109375 79.44140625 13.43359375 C80.43140625 13.92859375 80.43140625 13.92859375 81.44140625 14.43359375 C82.66413278 16.60503822 83.79211031 18.75794826 84.87890625 20.99609375 C85.35021973 21.96107788 85.35021973 21.96107788 85.83105469 22.94555664 C90.34920734 32.29227838 92.65195851 41.20973684 94.44140625 51.43359375 C94.6115625 52.30113281 94.78171875 53.16867188 94.95703125 54.0625 C96.66285722 65.02057769 93.78911839 77.40127608 87.44140625 86.43359375 C86.78140625 86.43359375 86.12140625 86.43359375 85.44140625 86.43359375 C85.44140625 87.09359375 85.44140625 87.75359375 85.44140625 88.43359375 C84.78140625 88.43359375 84.12140625 88.43359375 83.44140625 88.43359375 C82.94640625 89.91859375 82.94640625 89.91859375 82.44140625 91.43359375 C80.11469525 92.8823006 77.87025714 94.19151058 75.44140625 95.43359375 C74.79042969 95.78292969 74.13945312 96.13226563 73.46875 96.4921875 C67.1821952 99.41137769 59.81888194 99.62819596 53.00390625 100.30859375 C46.47974321 100.96600915 40.15508363 102.01471586 33.75390625 103.43359375 C-0.90938251 111.09808699 -0.90938251 111.09808699 -13.12109375 103.43359375 C-13.92546875 102.77359375 -14.72984375 102.11359375 -15.55859375 101.43359375 C-15.55859375 100.77359375 -15.55859375 100.11359375 -15.55859375 99.43359375 C-16.21859375 99.43359375 -16.87859375 99.43359375 -17.55859375 99.43359375 C-21.68773202 92.77369331 -22.59146947 87.42170405 -22.98828125 79.55859375 C-23.06175781 78.24246094 -23.13523437 76.92632812 -23.2109375 75.5703125 C-23.3231864 73.51533155 -23.43228509 71.46037939 -23.53271484 69.40478516 C-24.08262916 58.33943621 -25.79664113 47.86147532 -28.72265625 37.15625 C-29.73156472 32.66330714 -29.92626884 28.46014842 -29.93359375 23.87109375 C-29.95808594 23.05962891 -29.98257813 22.24816406 -30.0078125 21.41210938 C-30.04124782 14.50771672 -28.0948812 10.58208851 -23.74609375 5.18359375 C-16.53284042 -0.58700891 -8.85502589 -0.02488157 0 0 Z " fill="#EBF9FA" transform="translate(95.55859375,74.56640625)"/>
<path d="M0 0 C-0.33 1.65 -0.66 3.3 -1 5 C1.31 5 3.62 5 6 5 C5.67 9.95 5.34 14.9 5 20 C7.31 19.67 9.62 19.34 12 19 C11.125 23.875 11.125 23.875 10 25 C8.33382885 25.04063832 6.66611905 25.042721 5 25 C5 27.97 5 30.94 5 34 C5.66 34 6.32 34 7 34 C6.85416667 35.75 6.70833333 37.5 6.5625 39.25 C6.47226563 40.34054688 6.38203125 41.43109375 6.2890625 42.5546875 C6.10156077 44.78950544 5.90914868 47.02391893 5.7109375 49.2578125 C5.57558594 50.80082031 5.57558594 50.80082031 5.4375 52.375 C5.35371094 53.31085938 5.26992187 54.24671875 5.18359375 55.2109375 C4.99023016 58.14841836 4.96961524 61.05701909 5 64 C4.16855469 64.06058594 3.33710938 64.12117188 2.48046875 64.18359375 C1.39378906 64.26738281 0.30710938 64.35117188 -0.8125 64.4375 C-1.89144531 64.51871094 -2.97039062 64.59992188 -4.08203125 64.68359375 C-7.05989905 64.90212461 -7.05989905 64.90212461 -10 66 C-10.73323796 68.01508358 -10.73323796 68.01508358 -11 70 C-11.99 70 -12.98 70 -14 70 C-14 68.35 -14 66.7 -14 65 C-17.3 64.67 -20.6 64.34 -24 64 C-26 58.375 -26 58.375 -26 55 C-24.68 54.34 -23.36 53.68 -22 53 C-22 51.02 -22 49.04 -22 47 C-24.41645782 46.83312552 -24.41645782 46.83312552 -27 47 C-27.66 47.66 -28.32 48.32 -29 49 C-28.78453346 51.72687532 -28.78453346 51.72687532 -28 55 C-27.82855469 55.79019531 -27.65710938 56.58039063 -27.48046875 57.39453125 C-26.99791581 59.59899972 -26.50350144 61.80023641 -26 64 C-31.39998276 65.80713709 -36.07617787 66.2815686 -41.75 66.1875 C-42.50410156 66.18685547 -43.25820312 66.18621094 -44.03515625 66.18554688 C-47.27309953 66.15966633 -49.90916405 66.03027865 -53 65 C-53 60.38 -53 55.76 -53 51 C-54.65 50.34 -56.3 49.68 -58 49 C-58 48.01 -58 47.02 -58 46 C-56.68 46 -55.36 46 -54 46 C-54 42.37 -54 38.74 -54 35 C-49.20862412 33.3709322 -45.94367454 32.79422572 -41 34 C-41.33 36.31 -41.66 38.62 -42 41 C-40.02 41 -38.04 41 -36 41 C-36 39.68 -36 38.36 -36 37 C-36 36.34 -36 35.68 -36 35 C-33.79173622 34.97277483 -31.58337362 34.95350271 -29.375 34.9375 C-28.14523438 34.92589844 -26.91546875 34.91429687 -25.6484375 34.90234375 C-22.32276209 34.99136076 -19.25952412 35.36313913 -16 36 C-15.505 38.475 -15.505 38.475 -15 41 C-11.71303767 41.79953138 -10.28976808 42.09658936 -7 41 C-6.67 40.01 -6.34 39.02 -6 38 C-6.66 38 -7.32 38 -8 38 C-8 38.99 -8 39.98 -8 41 C-9.98 41 -11.96 41 -14 41 C-15 38 -15 38 -14 35 C-17.63 34.67 -21.26 34.34 -25 34 C-25.495 30.04 -25.495 30.04 -26 26 C-23.525 24.515 -23.525 24.515 -21 23 C-21.33 21.35 -21.66 19.7 -22 18 C-22.99 17.67 -23.98 17.34 -25 17 C-25.495 18.485 -25.495 18.485 -26 20 C-26.99 19.67 -27.98 19.34 -29 19 C-28.34 18.34 -27.68 17.68 -27 17 C-26.46972668 14.93329016 -26.46972668 14.93329016 -26.125 12.625 C-25.50182513 9.66610863 -25.02928762 8.04338907 -23.3125 5.5 C-20.27008686 3.52654283 -17.57219107 3.33699916 -14 3 C-13.67 2.67 -13.34 2.34 -13 2 C-15.97 2 -18.94 2 -22 2 C-21.67 1.34 -21.34 0.68 -21 0 C-14.48493538 -2.05738883 -5.8963162 -3.93087747 0 0 Z " fill="#FCF7F1" transform="translate(149,95)"/>
<path d="M0 0 C1.32 0 2.64 0 4 0 C4 1.98 4 3.96 4 6 C7.96 6 11.92 6 16 6 C14.25 17.75 14.25 17.75 12 20 C12.66 20 13.32 20 14 20 C14.33 19.34 14.66 18.68 15 18 C16.32 18.33 17.64 18.66 19 19 C19.6875 21.3125 19.6875 21.3125 20 24 C18.75 25.8125 18.75 25.8125 17 27 C16.01 27 15.02 27 14 27 C14.495 30.96 14.495 30.96 15 35 C15.62648437 34.98839844 16.25296875 34.97679687 16.8984375 34.96484375 C17.71570313 34.95582031 18.53296875 34.94679687 19.375 34.9375 C20.59316406 34.92009766 20.59316406 34.92009766 21.8359375 34.90234375 C24 35 24 35 26 36 C26 37.65 26 39.3 26 41 C28.97 41.495 28.97 41.495 32 42 C32 41.01 32 40.02 32 39 C32.66 39 33.32 39 34 39 C33.67 40.32 33.34 41.64 33 43 C30.25 43.6875 30.25 43.6875 27 44 C24.625 42.5625 24.625 42.5625 23 41 C23.33 39.68 23.66 38.36 24 37 C17.4 36.67 10.8 36.34 4 36 C4.66 37.65 5.32 39.3 6 41 C4 43 4 43 0.875 43.125 C-0.07375 43.08375 -1.0225 43.0425 -2 43 C-2.59732819 40.23735711 -3 37.83967231 -3 35 C-8.445 35.495 -8.445 35.495 -14 36 C-14 39.3 -14 42.6 -14 46 C-14.33 46 -14.66 46 -15 46 C-15.66 39.4 -16.32 32.8 -17 26 C-19.83967231 26 -22.23735711 26.40267181 -25 27 C-23.1875 24 -23.1875 24 -21 21 C-20.01 21 -19.02 21 -18 21 C-17.34 21.99 -16.68 22.98 -16 24 C-15.67 22.68 -15.34 21.36 -15 20 C-15.99 19.67 -16.98 19.34 -18 19 C-17.01 19 -16.02 19 -15 19 C-15 18.34 -15 17.68 -15 17 C-18.10712212 17.78637041 -21.09244107 18.63924116 -24 20 C-25.66334085 22.51751876 -25.66334085 22.51751876 -26 25 C-26.33 24.34 -26.66 23.68 -27 23 C-26.67 22.34 -26.34 21.68 -26 21 C-26.66 20.67 -27.32 20.34 -28 20 C-26.71520959 18.49410612 -25.42195918 16.99542625 -24.125 15.5 C-23.40570313 14.6646875 -22.68640625 13.829375 -21.9453125 12.96875 C-21.30335937 12.3190625 -20.66140625 11.669375 -20 11 C-19.34 11 -18.68 11 -18 11 C-18 9.68 -18 8.36 -18 7 C-11.84765625 6.90234375 -11.84765625 6.90234375 -10 7 C-9.67 7.33 -9.34 7.66 -9 8 C-7.68 8 -6.36 8 -5 8 C-5 7.34 -5 6.68 -5 6 C-3.35 6 -1.7 6 0 6 C0 4.02 0 2.04 0 0 Z " fill="#F9D4DD" transform="translate(109,94)"/>
<path d="M0 0 C-0.33 1.65 -0.66 3.3 -1 5 C1.31 5 3.62 5 6 5 C5.67 9.95 5.34 14.9 5 20 C7.31 19.67 9.62 19.34 12 19 C11.125 23.875 11.125 23.875 10 25 C8.33382885 25.04063832 6.66611905 25.042721 5 25 C5 27.97 5 30.94 5 34 C5.66 34 6.32 34 7 34 C6.67 37.96 6.34 41.92 6 46 C5.67 46 5.34 46 5 46 C5 42.37 5 38.74 5 35 C-0.94 35.495 -0.94 35.495 -7 36 C-7.33 37.65 -7.66 39.3 -8 41 C-9.98 41 -11.96 41 -14 41 C-15 38 -15 38 -14 35 C-17.63 34.67 -21.26 34.34 -25 34 C-25.33 31.36 -25.66 28.72 -26 26 C-24.35 25.01 -22.7 24.02 -21 23 C-21.33 21.35 -21.66 19.7 -22 18 C-22.99 17.67 -23.98 17.34 -25 17 C-25.33 17.99 -25.66 18.98 -26 20 C-26.99 19.67 -27.98 19.34 -29 19 C-28.34 18.34 -27.68 17.68 -27 17 C-26.46972668 14.93329016 -26.46972668 14.93329016 -26.125 12.625 C-25.50182513 9.66610863 -25.02928762 8.04338907 -23.3125 5.5 C-20.27008686 3.52654283 -17.57219107 3.33699916 -14 3 C-13.67 2.67 -13.34 2.34 -13 2 C-15.97 2 -18.94 2 -22 2 C-21.67 1.34 -21.34 0.68 -21 0 C-14.48493538 -2.05738883 -5.8963162 -3.93087747 0 0 Z " fill="#F9EFE9" transform="translate(149,95)"/>
<path d="M0 0 C2.4375 0.1875 2.4375 0.1875 3.4375 1.1875 C3.625 4.125 3.625 4.125 3.4375 7.1875 C2.7775 7.8475 2.1175 8.5075 1.4375 9.1875 C0.4475 9.1875 -0.5425 9.1875 -1.5625 9.1875 C-0.9025 12.8175 -0.2425 16.4475 0.4375 20.1875 C-0.8825 20.5175 -2.2025 20.8475 -3.5625 21.1875 C-3.0675 22.1775 -3.0675 22.1775 -2.5625 23.1875 C-4.33367187 23.04441406 -4.33367187 23.04441406 -6.140625 22.8984375 C-7.69787391 22.78586529 -9.25516815 22.67391886 -10.8125 22.5625 C-11.58980469 22.49804688 -12.36710937 22.43359375 -13.16796875 22.3671875 C-17.32852588 22.08270496 -19.87823486 22.02957327 -23.5625 24.1875 C-24.5525 23.8575 -25.5425 23.5275 -26.5625 23.1875 C-26.2325 22.8575 -25.9025 22.5275 -25.5625 22.1875 C-28.0375 21.1975 -28.0375 21.1975 -30.5625 20.1875 C-30.5625 15.8975 -30.5625 11.6075 -30.5625 7.1875 C-31.8825 6.5275 -33.2025 5.8675 -34.5625 5.1875 C-34.5625 4.5275 -34.5625 3.8675 -34.5625 3.1875 C-35.2225 3.1875 -35.8825 3.1875 -36.5625 3.1875 C-36.5625 2.5275 -36.5625 1.8675 -36.5625 1.1875 C-35.5725 1.1875 -34.5825 1.1875 -33.5625 1.1875 C-33.5625 1.8475 -33.5625 2.5075 -33.5625 3.1875 C-31.0875 4.1775 -31.0875 4.1775 -28.5625 5.1875 C-28.5625 9.8075 -28.5625 14.4275 -28.5625 19.1875 C-25.24994674 19.21433436 -21.93760817 19.2342578 -18.625 19.25 C-17.67947266 19.25837891 -16.73394531 19.26675781 -15.75976562 19.27539062 C-14.86064453 19.27861328 -13.96152344 19.28183594 -13.03515625 19.28515625 C-12.20250244 19.29039307 -11.36984863 19.29562988 -10.51196289 19.30102539 C-8.55733202 19.40393292 -8.55733202 19.40393292 -7.5625 18.1875 C-5.56291636 18.14669217 -3.56204746 18.14495644 -1.5625 18.1875 C-1.86285156 17.45144531 -2.16320312 16.71539062 -2.47265625 15.95703125 C-2.85292969 14.98121094 -3.23320313 14.00539062 -3.625 13 C-4.00785156 12.03707031 -4.39070313 11.07414063 -4.78515625 10.08203125 C-5.63052097 6.9342159 -5.57583724 5.25934429 -4.5625 2.1875 C-2.5625 0.1875 -2.5625 0.1875 0 0 Z " fill="#CFCFCA" transform="translate(124.5625,140.8125)"/>
<path d="M0 0 C-0.33 1.65 -0.66 3.3 -1 5 C1.31 5 3.62 5 6 5 C5.67 9.95 5.34 14.9 5 20 C8.465 19.505 8.465 19.505 12 19 C11.505 21.475 11.505 21.475 11 24 C10.01 24 9.02 24 8 24 C8.66 23.01 9.32 22.02 10 21 C9.030625 21.020625 8.06125 21.04125 7.0625 21.0625 C4 21 4 21 3 20 C2.90105545 18.5653041 2.87029265 17.12559603 2.875 15.6875 C2.87113281 14.51767578 2.87113281 14.51767578 2.8671875 13.32421875 C2.99500088 11.08748461 3.38086131 9.14733021 4 7 C3.05125 6.855625 2.1025 6.71125 1.125 6.5625 C-2 6 -2 6 -4 5 C-5.5778125 5.2475 -5.5778125 5.2475 -7.1875 5.5 C-11.0754673 6.00989735 -14.16307043 5.70474217 -18 5 C-17.360625 4.690625 -16.72125 4.38125 -16.0625 4.0625 C-14.06389179 3.1654837 -14.06389179 3.1654837 -13 2 C-15.97 2 -18.94 2 -22 2 C-21.67 1.34 -21.34 0.68 -21 0 C-14.48493538 -2.05738883 -5.8963162 -3.93087747 0 0 Z " fill="#C1D6D0" transform="translate(149,95)"/>
<path d="M0 0 C0.66 0 1.32 0 2 0 C4.97950994 9.96717015 5.24134796 16.87391012 3 27 C4.98 27 6.96 27 9 27 C8.35546875 27.22429687 7.7109375 27.44859375 7.046875 27.6796875 C4.75611148 28.82889456 4.75611148 28.82889456 4.390625 31.3828125 C4.32101563 32.74019531 4.32101563 32.74019531 4.25 34.125 C4.19328125 35.03507812 4.1365625 35.94515625 4.078125 36.8828125 C4.05234375 37.58148438 4.0265625 38.28015625 4 39 C3.67 39 3.34 39 3 39 C2.34 32.4 1.68 25.8 1 19 C-1.83967231 19 -4.23735711 19.40267181 -7 20 C-5.1875 17 -5.1875 17 -3 14 C-2.01 14 -1.02 14 0 14 C0.99 15.485 0.99 15.485 2 17 C2.33 15.68 2.66 14.36 3 13 C2.01 12.67 1.02 12.34 0 12 C0.99 12 1.98 12 3 12 C3 11.34 3 10.68 3 10 C-0.10712212 10.78637041 -3.09244107 11.63924116 -6 13 C-7.66334085 15.51751876 -7.66334085 15.51751876 -8 18 C-8.33 17.34 -8.66 16.68 -9 16 C-8.67 15.34 -8.34 14.68 -8 14 C-8.66 13.67 -9.32 13.34 -10 13 C-8.71520959 11.49410612 -7.42195918 9.99542625 -6.125 8.5 C-5.04605469 7.24703125 -5.04605469 7.24703125 -3.9453125 5.96875 C-3.30335937 5.3190625 -2.66140625 4.669375 -2 4 C-1.34 4 -0.68 4 0 4 C0 2.68 0 1.36 0 0 Z " fill="#BCC6C3" transform="translate(91,101)"/>
<path d="M0 0 C0.33 0.99 0.66 1.98 1 3 C1.90492188 2.91298828 1.90492188 2.91298828 2.828125 2.82421875 C9.3594306 2.45551601 9.3594306 2.45551601 12.5 5.125 C14.11877862 8.22765902 14.84803698 10.50485052 15 14 C14.01 15.485 14.01 15.485 13 17 C12.34 13.7 11.68 10.4 11 7 C6.545 7.495 6.545 7.495 2 8 C2 7.34 2 6.68 2 6 C1.34 6 0.68 6 0 6 C0.33 8.97 0.66 11.94 1 15 C-2.52679099 17.35119399 -4.02879485 17.21443452 -8.1875 17.125 C-9.27417969 17.10695312 -10.36085937 17.08890625 -11.48046875 17.0703125 C-12.72763672 17.03550781 -12.72763672 17.03550781 -14 17 C-13.67 16.34 -13.34 15.68 -13 15 C-9.04 15 -5.08 15 -1 15 C-1.20625 13.63875 -1.4125 12.2775 -1.625 10.875 C-2.10072892 6.74984378 -1.68320802 3.86147722 0 0 Z " fill="#B9CDC8" transform="translate(155,144)"/>
<path d="M0 0 C0.66 0.33 1.32 0.66 2 1 C1.25 5.75 1.25 5.75 -1 8 C1.475 8.99 1.475 8.99 4 10 C3.125 13.875 3.125 13.875 2 15 C0.14712498 15.07226502 -1.70833878 15.0838122 -3.5625 15.0625 C-4.57441406 15.05347656 -5.58632812 15.04445313 -6.62890625 15.03515625 C-7.41136719 15.02355469 -8.19382812 15.01195313 -9 15 C-9.33 13.02 -9.66 11.04 -10 9 C-9.01 9.33 -8.02 9.66 -7 10 C-6.67 9.01 -6.34 8.02 -6 7 C-5.01 6.67 -4.02 6.34 -3 6 C-1.29144978 2.99992729 -1.29144978 2.99992729 0 0 Z " fill="#C1CED9" transform="translate(112,110)"/>
<path d="M0 0 C6.6 0 13.2 0 20 0 C20 0.99 20 1.98 20 3 C14.62421315 4.75623315 9.69889745 5.39316874 4.0625 5.625 C3.28326172 5.66367188 2.50402344 5.70234375 1.70117188 5.7421875 C-0.19887379 5.83544127 -2.09940278 5.91875962 -4 6 C-3.525625 5.566875 -3.05125 5.13375 -2.5625 4.6875 C-0.76313043 2.97690387 -0.76313043 2.97690387 0 0 Z " fill="#CEE6E3" transform="translate(93,166)"/>
<path d="M0 0 C1.95803507 -0.05389087 3.91648909 -0.09274217 5.875 -0.125 C7.51082031 -0.15980469 7.51082031 -0.15980469 9.1796875 -0.1953125 C12 0 12 0 14 2 C13.625 4.125 13.625 4.125 13 6 C12.34 5.01 11.68 4.02 11 3 C10.54625 3.78375 10.0925 4.5675 9.625 5.375 C8 8 8 8 6 10 C5.34 10 4.68 10 4 10 C3.67 10.66 3.34 11.32 3 12 C2.01 11.67 1.02 11.34 0 11 C1.32 9.35 2.64 7.7 4 6 C2.68 5.34 1.36 4.68 0 4 C0 2.68 0 1.36 0 0 Z " fill="#E2E1E7" transform="translate(102,108)"/>
<path d="M0 0 C2.31 0.33 4.62 0.66 7 1 C6.67 1.66 6.34 2.32 6 3 C5.01 3 4.02 3 3 3 C3.33 5.64 3.66 8.28 4 11 C4.62648438 10.98839844 5.25296875 10.97679687 5.8984375 10.96484375 C6.71570313 10.95582031 7.53296875 10.94679687 8.375 10.9375 C9.18710938 10.92589844 9.99921875 10.91429687 10.8359375 10.90234375 C13 11 13 11 15 12 C15 13.65 15 15.3 15 17 C16.98 17.33 18.96 17.66 21 18 C21 17.01 21 16.02 21 15 C21.66 15 22.32 15 23 15 C22.67 16.32 22.34 17.64 22 19 C19.25 19.6875 19.25 19.6875 16 20 C13.625 18.5625 13.625 18.5625 12 17 C12.33 15.68 12.66 14.36 13 13 C6.4 12.67 -0.2 12.34 -7 12 C-7 11.67 -7 11.34 -7 11 C-4.03 11 -1.06 11 2 11 C1.34 7.37 0.68 3.74 0 0 Z " fill="#D4C9C6" transform="translate(120,118)"/>
<path d="M0 0 C0.99 0 1.98 0 3 0 C3 0.66 3 1.32 3 2 C5.475 2.99 5.475 2.99 8 4 C8 8.62 8 13.24 8 18 C14.93 18.33 21.86 18.66 29 19 C29 19.33 29 19.66 29 20 C27.77023438 20.07347656 27.77023438 20.07347656 26.515625 20.1484375 C25.43796875 20.22320312 24.3603125 20.29796875 23.25 20.375 C22.18265625 20.44460937 21.1153125 20.51421875 20.015625 20.5859375 C17.04704847 20.82896358 17.04704847 20.82896358 14.796875 22.1015625 C14.20390625 22.39804688 13.6109375 22.69453125 13 23 C12.01 22.67 11.02 22.34 10 22 C10.33 21.67 10.66 21.34 11 21 C8.525 20.01 8.525 20.01 6 19 C6 14.71 6 10.42 6 6 C4.68 5.34 3.36 4.68 2 4 C2 3.34 2 2.68 2 2 C1.34 2 0.68 2 0 2 C0 1.34 0 0.68 0 0 Z " fill="#BCC8C3" transform="translate(88,142)"/>
<path d="M0 0 C0.99 0 1.98 0 3 0 C3 0.99 3 1.98 3 3 C5.31 3 7.62 3 10 3 C9.67 7.95 9.34 12.9 9 18 C12.465 17.505 12.465 17.505 16 17 C15.67 18.65 15.34 20.3 15 22 C14.01 22 13.02 22 12 22 C12.66 21.01 13.32 20.02 14 19 C13.030625 19.020625 12.06125 19.04125 11.0625 19.0625 C8 19 8 19 7 18 C6.90105545 16.5653041 6.87029265 15.12559603 6.875 13.6875 C6.87242187 12.90761719 6.86984375 12.12773438 6.8671875 11.32421875 C6.99500088 9.08748461 7.38086131 7.14733021 8 5 C7.0925 4.87625 6.185 4.7525 5.25 4.625 C2.41029677 4.07890323 0.47409409 3.42736197 -2 2 C-1.34 1.34 -0.68 0.68 0 0 Z " fill="#C9CAC6" transform="translate(145,97)"/>
<path d="M0 0 C7.76494675 0 11.18728184 0.58360353 17 6 C17 6.66 17 7.32 17 8 C16.34 8 15.68 8 15 8 C14.67 8.99 14.34 9.98 14 11 C13.360625 10.030625 12.72125 9.06125 12.0625 8.0625 C9.67445952 5.12921328 7.92609574 4.50829452 4.1875 4.125 C2.79271423 4.05673969 1.39644183 4.00608471 0 4 C0 2.68 0 1.36 0 0 Z " fill="#B7D0CC" transform="translate(156,140)"/>
<path d="M0 0 C0.9178125 0.00451172 1.835625 0.00902344 2.78125 0.01367188 C5.02090391 0.02533674 7.26041545 0.04170386 9.5 0.0625 C9.5 0.7225 9.5 1.3825 9.5 2.0625 C8.84 2.0625 8.18 2.0625 7.5 2.0625 C7.5 2.7225 7.5 3.3825 7.5 4.0625 C4.53 4.0625 1.56 4.0625 -1.5 4.0625 C-1.5 3.7325 -1.5 3.4025 -1.5 3.0625 C-8.1 3.0625 -14.7 3.0625 -21.5 3.0625 C-15.36573259 -1.02701161 -7.14987245 -0.06754967 0 0 Z " fill="#B9D9D3" transform="translate(151.5,88.9375)"/>
<path d="M0 0 C7.09882979 0.2406383 7.09882979 0.2406383 9.5390625 2.296875 C10.76138134 3.81165049 11.88379298 5.40541854 13 7 C13.598125 7.556875 14.19625 8.11375 14.8125 8.6875 C16 10 16 10 16 13 C15.34 13 14.68 13 14 13 C13.10887963 11.69107565 12.26149076 10.35218996 11.4375 9 C9.17759516 5.78122242 9.17759516 5.78122242 5.60546875 4.46875 C3.35568335 4.49709375 1.22050838 4.64471866 -1 5 C-1.33 4.34 -1.66 3.68 -2 3 C-1.34 2.01 -0.68 1.02 0 0 Z " fill="#E8F7F7" transform="translate(157,143)"/>
<path d="M0 0 C2.5 0.125 2.5 0.125 3.5 1.125 C3.6875 4.0625 3.6875 4.0625 3.5 7.125 C2.84 7.785 2.18 8.445 1.5 9.125 C-1.125 8.75 -1.125 8.75 -3.5 8.125 C-3.54241723 5.79205225 -3.54092937 3.45797433 -3.5 1.125 C-2.5 0.125 -2.5 0.125 0 0 Z " fill="#EBD1D6" transform="translate(124.5,140.875)"/>
<path d="M0 0 C3 0 3 0 4.625 1.375 C6.28022394 3.33117374 7.04044625 4.35025052 6.87890625 6.9453125 C6.5859375 8.96354167 6.29296875 10.98177083 6 13 C7.98 13 9.96 13 12 13 C11.35546875 13.22429687 10.7109375 13.44859375 10.046875 13.6796875 C7.75611148 14.82889456 7.75611148 14.82889456 7.390625 17.3828125 C7.32101563 18.74019531 7.32101563 18.74019531 7.25 20.125 C7.19328125 21.03507812 7.1365625 21.94515625 7.078125 22.8828125 C7.05234375 23.58148438 7.0265625 24.28015625 7 25 C6.67 25 6.34 25 6 25 C5.34 18.4 4.68 11.8 4 5 C1.16032769 5 -1.23735711 5.40267181 -4 6 C-2.1875 3 -2.1875 3 0 0 Z " fill="#AFC6C2" transform="translate(88,115)"/>
<path d="M0 0 C0 2.64 0 5.28 0 8 C-0.99 7.34 -1.98 6.68 -3 6 C-3 5.34 -3 4.68 -3 4 C-3.99 4 -4.98 4 -6 4 C-6.66 5.65 -7.32 7.3 -8 9 C-9.32 8.67 -10.64 8.34 -12 8 C-9.13615684 2.42304228 -6.38989612 0 0 0 Z " fill="#E3F4F3" transform="translate(94,111)"/>
<path d="M0 0 C2 0 4 0 6 0 C6.66 1.65 7.32 3.3 8 5 C6 7 6 7 2.875 7.125 C1.451875 7.063125 1.451875 7.063125 0 7 C-1.125 2.25 -1.125 2.25 0 0 Z " fill="#E4C7CC" transform="translate(107,130)"/>
<path d="M0 0 C2.25 0.25 2.25 0.25 4 1 C4.38218767 2.65614657 4.71395102 4.32457024 5 6 C4 7 4 7 1.0625 7.125 C-2 7 -2 7 -4 6 C-4 4 -4 4 -2.25 1.8125 C-1.5075 1.214375 -0.765 0.61625 0 0 Z " fill="#EECED5" transform="translate(124,112)"/>
<path d="M0 0 C-0.33 0.66 -0.66 1.32 -1 2 C-1.66 1.67 -2.32 1.34 -3 1 C-4.83128771 0.90391392 -6.66619959 0.87017421 -8.5 0.875 C-9.4796875 0.87242188 -10.459375 0.86984375 -11.46875 0.8671875 C-13.99431054 0.83059947 -13.99431054 0.83059947 -16 2 C-17.99960012 2.039992 -20.00047242 2.04346799 -22 2 C-21.67 1.34 -21.34 0.68 -21 0 C-14.48493538 -2.05738883 -5.8963162 -3.93087747 0 0 Z " fill="#B5D2CD" transform="translate(149,95)"/>
<path d="M0 0 C3.63 0 7.26 0 11 0 C10.719172 1.98073365 10.42503386 3.95958448 10.125 5.9375 C9.96257812 7.03964844 9.80015625 8.14179687 9.6328125 9.27734375 C9.42398438 10.17582031 9.21515625 11.07429688 9 12 C8.01 12.495 8.01 12.495 7 13 C7.875 5.375 7.875 5.375 9 2 C6.03 2 3.06 2 0 2 C0 1.34 0 0.68 0 0 Z " fill="#D8C9CB" transform="translate(114,100)"/>
<path d="M0 0 C6.6 0 13.2 0 20 0 C20 0.99 20 1.98 20 3 C16.7 3.33 13.4 3.66 10 4 C10 3.67 10 3.34 10 3 C11.65 2.67 13.3 2.34 15 2 C10.05 2 5.1 2 0 2 C0 1.34 0 0.68 0 0 Z " fill="#A7C9C2" transform="translate(93,166)"/>
<path d="M0 0 C0.99 0 1.98 0 3 0 C3 0.66 3 1.32 3 2 C5.475 2.99 5.475 2.99 8 4 C8 8.62 8 13.24 8 18 C7.67 18 7.34 18 7 18 C6.96132812 16.86111328 6.96132812 16.86111328 6.921875 15.69921875 C6.86515625 14.70535156 6.8084375 13.71148437 6.75 12.6875 C6.70359375 11.70136719 6.6571875 10.71523437 6.609375 9.69921875 C5.86071244 6.38302755 4.77171797 5.80161668 2 4 C2 3.34 2 2.68 2 2 C1.34 2 0.68 2 0 2 C0 1.34 0 0.68 0 0 Z " fill="#D0D0CC" transform="translate(88,142)"/>
<path d="M0 0 C1.4540625 0.0309375 1.4540625 0.0309375 2.9375 0.0625 C2.2775 1.3825 1.6175 2.7025 0.9375 4.0625 C-2.6925 4.0625 -6.3225 4.0625 -10.0625 4.0625 C-10.0625 3.4025 -10.0625 2.7425 -10.0625 2.0625 C-9.093125 1.918125 -8.12375 1.77375 -7.125 1.625 C-3.68000001 0.9922449 -3.49936322 0.07141558 0 0 Z " fill="#A0ADBF" transform="translate(113.0625,120.9375)"/>
<path d="M0 0 C0.66 0 1.32 0 2 0 C2 0.99 2 1.98 2 3 C4.475 3.99 4.475 3.99 7 5 C4 7 4 7 1.5 6.625 C0.675 6.41875 -0.15 6.2125 -1 6 C-1.99 6 -2.98 6 -4 6 C-3.67 4.68 -3.34 3.36 -3 2 C-2.34 2.33 -1.68 2.66 -1 3 C-0.67 2.01 -0.34 1.02 0 0 Z " fill="#CDC4D1" transform="translate(106,117)"/>
<path d="M0 0 C0.66 0.33 1.32 0.66 2 1 C0.68 2.65 -0.64 4.3 -2 6 C-1.34 6.33 -0.68 6.66 0 7 C-0.99 7.33 -1.98 7.66 -3 8 C-4.21869929 10.50447516 -4.21869929 10.50447516 -5 13 C-5.33 12.34 -5.66 11.68 -6 11 C-5.67 10.34 -5.34 9.68 -5 9 C-5.66 8.67 -6.32 8.34 -7 8 C-4.69 5.36 -2.38 2.72 0 0 Z " fill="#94B9B1" transform="translate(88,106)"/>
<path d="M0 0 C0.33 0 0.66 0 1 0 C1 2.31 1 4.62 1 7 C2.98 7 4.96 7 7 7 C6.35546875 7.22429687 5.7109375 7.44859375 5.046875 7.6796875 C2.75611148 8.82889456 2.75611148 8.82889456 2.390625 11.3828125 C2.34421875 12.28773438 2.2978125 13.19265625 2.25 14.125 C2.19328125 15.03507813 2.1365625 15.94515625 2.078125 16.8828125 C2.03945312 17.93082031 2.03945312 17.93082031 2 19 C1.67 19 1.34 19 1 19 C0.25492456 12.62694402 -0.10349817 6.41688675 0 0 Z " fill="#C4C2C2" transform="translate(93,121)"/>
<path d="M0 0 C0.33 0 0.66 0 1 0 C1.33 2.64 1.66 5.28 2 8 C-0.66666667 9.33333333 -3.33333333 10.66666667 -6 12 C-4.66666667 9.33333333 -3.33333333 6.66666667 -2 4 C-1.34 4 -0.68 4 0 4 C0 2.68 0 1.36 0 0 Z " fill="#C1E3DC" transform="translate(91,101)"/>
<path d="M0 0 C6.0546875 -0.1953125 6.0546875 -0.1953125 8 0 C8.66 0.66 9.32 1.32 10 2 C6.52674819 3.1577506 3.63932552 3.06866652 0 3 C0 2.01 0 1.02 0 0 Z " fill="#E8F7F7" transform="translate(138,95)"/>
<path d="M0 0 C0.33 1.32 0.66 2.64 1 4 C0.360625 4.12375 -0.27875 4.2475 -0.9375 4.375 C-1.9584375 4.684375 -1.9584375 4.684375 -3 5 C-3.33 5.66 -3.66 6.32 -4 7 C-4.99 6.67 -5.98 6.34 -7 6 C-2.25 1.125 -2.25 1.125 0 0 Z " fill="#DED3DD" transform="translate(109,113)"/>
<path d="M0 0 C2.97 0 5.94 0 9 0 C8.34 1.32 7.68 2.64 7 4 C4.69 3.67 2.38 3.34 0 3 C0 2.01 0 1.02 0 0 Z " fill="#EBD8E0" transform="translate(104,109)"/>
<path d="M0 0 C0.99 0 1.98 0 3 0 C3 0.99 3 1.98 3 3 C5.31 3 7.62 3 10 3 C9.67 3.99 9.34 4.98 9 6 C9 5.34 9 4.68 9 4 C7.9275 4.04125 6.855 4.0825 5.75 4.125 C2.34252515 4.0114175 0.79260369 3.78726636 -2 2 C-1.34 1.34 -0.68 0.68 0 0 Z " fill="#BACAC4" transform="translate(145,97)"/>
<path d="M0 0 C0.61746094 0.31582031 1.23492187 0.63164063 1.87109375 0.95703125 C0.41373288 1.15194577 -1.04485218 1.33772483 -2.50390625 1.51953125 C-3.31601563 1.62394531 -4.128125 1.72835937 -4.96484375 1.8359375 C-7.12890625 1.95703125 -7.12890625 1.95703125 -9.12890625 0.95703125 C-9.12890625 0.29703125 -9.12890625 -0.36296875 -9.12890625 -1.04296875 C-5.3029611 -2.3182838 -3.55370646 -1.74099014 0 0 Z " fill="#DAF1EE" transform="translate(155.12890625,93.04296875)"/>
<path d="M0 0 C2.5 2.3125 2.5 2.3125 5 5 C5 5.99 5 6.98 5 8 C4.34 8 3.68 8 3 8 C1.61061923 6.03852126 0.2739589 4.03833424 -1 2 C-0.67 1.34 -0.34 0.68 0 0 Z " fill="#C9E0DE" transform="translate(168,148)"/>
<path d="M0 0 C0.66 0.33 1.32 0.66 2 1 C1.67 2.65 1.34 4.3 1 6 C-0.32 5.67 -1.64 5.34 -3 5 C-2.01 3.35 -1.02 1.7 0 0 Z " fill="#C1C1CD" transform="translate(112,110)"/>
<path d="M0 0 C0.99 0.33 1.98 0.66 3 1 C0.69 3.31 -1.62 5.62 -4 8 C-4.33 7.01 -4.66 6.02 -5 5 C-3.35 3.35 -1.7 1.7 0 0 Z " fill="#E4F1F6" transform="translate(74,78)"/>
</svg>
